<?xml version="1.0" encoding="utf-8"?>
<!-- Generator: Adobe Illustrator 23.0.6, SVG Export Plug-In . SVG Version: 6.00 Build 0)  -->
<svg version="1.1" id="Layer_1" xmlns="http://www.w3.org/2000/svg" xmlns:xlink="http://www.w3.org/1999/xlink" x="0px" y="0px"
	 viewBox="0 0 1280 1024" style="enable-background:new 0 0 1280 1024;" xml:space="preserve">
<style type="text/css">
	.st0{fill:none;stroke:#000000;stroke-miterlimit:10;}
	 #myClipPath path { d: M120.5,214.06c0.56,144.44,1.11,288.89,1.67,433.33c75,40,150,80,225,120c43.89,28.33,87.78,56.67,131.67,85c51.67,43.33,103.33,86.67,155,130c0,0,41.48-50.45,88.33-88.33c24.15-19.52,42.87-30.17,68.33-45c110.75-64.51,78.08-50.47,198.33-120c43.8-25.32,100.12-57.25,166.67-93.33c1.11-197.78,2.22-395.56,3.33-593.33c-132.78,0-265.56,0-398.33,0c-90.55,36.11-181.11,72.22-271.66,108.33c-68.89,21.67-137.78,43.33-206.67,65c-28.95,6.21-67.26,10.89-111.67,6.67C152.15,220.65,135.41,217.64,120.5,214.06z; }
</style>
<path id="myClipPath" class="st0" d="M120.5,214.06c0.56,144.44,1.11,288.89,1.67,433.33c75,40,150,80,225,120c43.89,28.33,87.78,56.67,131.67,85
	c51.67,43.33,103.33,86.67,155,130c0,0,41.48-50.45,88.33-88.33c24.15-19.52,42.87-30.17,68.33-45
	c110.75-64.51,78.08-50.47,198.33-120c43.8-25.32,100.12-57.25,166.67-93.33c1.11-197.78,2.22-395.56,3.33-593.33
	c-132.78,0-265.56,0-398.33,0c-90.55,36.11-181.11,72.22-271.66,108.33c-68.89,21.67-137.78,43.33-206.67,65
	c-28.95,6.21-67.26,10.89-111.67,6.67C152.15,220.65,135.41,217.64,120.5,214.06z" />
</svg>
